<mxfile host="app.diagrams.net" modified="2023-10-25T09:43:09.563Z" agent="Mozilla/5.0 (Windows NT 10.0; Win64; x64) AppleWebKit/537.36 (KHTML, like Gecko) Chrome/118.0.0.0 Safari/537.36 Edg/118.0.2088.61" etag="JFps5mKQwBxUTFRBydqT" version="22.0.8" type="device">
  <diagram name="Страница — 1" id="Hrbx1KmNpEyVZf2BnhBt">
    <mxGraphModel dx="2213" dy="751" grid="1" gridSize="10" guides="1" tooltips="1" connect="1" arrows="1" fold="1" page="1" pageScale="1" pageWidth="827" pageHeight="1169" math="0" shadow="0">
      <root>
        <mxCell id="0" />
        <mxCell id="1" parent="0" />
        <mxCell id="n9FYxXZpF2rJdnw8TL6y-3" value="" style="edgeStyle=orthogonalEdgeStyle;rounded=0;orthogonalLoop=1;jettySize=auto;html=1;" edge="1" parent="1" source="n9FYxXZpF2rJdnw8TL6y-1" target="n9FYxXZpF2rJdnw8TL6y-2">
          <mxGeometry relative="1" as="geometry" />
        </mxCell>
        <mxCell id="n9FYxXZpF2rJdnw8TL6y-1" value="&lt;br&gt;&lt;br&gt;Открытие&lt;br&gt;страницы" style="ellipse;whiteSpace=wrap;html=1;aspect=fixed;" vertex="1" parent="1">
          <mxGeometry x="200" y="40" width="110" height="110" as="geometry" />
        </mxCell>
        <mxCell id="n9FYxXZpF2rJdnw8TL6y-2" value="&lt;br&gt;&lt;br&gt;отображение&lt;br&gt;страницы" style="ellipse;whiteSpace=wrap;html=1;aspect=fixed;" vertex="1" parent="1">
          <mxGeometry x="200" y="200" width="110" height="110" as="geometry" />
        </mxCell>
        <mxCell id="n9FYxXZpF2rJdnw8TL6y-6" value="" style="triangle;whiteSpace=wrap;html=1;rotation=90;" vertex="1" parent="1">
          <mxGeometry x="235" y="50" width="30" height="40" as="geometry" />
        </mxCell>
        <mxCell id="n9FYxXZpF2rJdnw8TL6y-7" value="" style="ellipse;whiteSpace=wrap;html=1;aspect=fixed;fillColor=#000000;" vertex="1" parent="1">
          <mxGeometry x="240" y="210" width="30" height="30" as="geometry" />
        </mxCell>
        <mxCell id="n9FYxXZpF2rJdnw8TL6y-12" value="" style="endArrow=classic;html=1;rounded=0;" edge="1" parent="1" source="n9FYxXZpF2rJdnw8TL6y-4">
          <mxGeometry width="50" height="50" relative="1" as="geometry">
            <mxPoint x="100" y="240" as="sourcePoint" />
            <mxPoint x="160" y="400" as="targetPoint" />
          </mxGeometry>
        </mxCell>
        <mxCell id="n9FYxXZpF2rJdnw8TL6y-19" value="Ввод в поле ввода&lt;br&gt;пользовательских&lt;br&gt;значений" style="ellipse;whiteSpace=wrap;html=1;aspect=fixed;" vertex="1" parent="1">
          <mxGeometry x="414" y="200" width="110" height="110" as="geometry" />
        </mxCell>
        <mxCell id="n9FYxXZpF2rJdnw8TL6y-34" value="" style="endArrow=classic;html=1;rounded=0;" edge="1" parent="1" target="n9FYxXZpF2rJdnw8TL6y-4">
          <mxGeometry width="50" height="50" relative="1" as="geometry">
            <mxPoint x="100" y="240" as="sourcePoint" />
            <mxPoint x="140" y="320" as="targetPoint" />
          </mxGeometry>
        </mxCell>
        <mxCell id="n9FYxXZpF2rJdnw8TL6y-4" value="Нажатие&lt;br&gt;кнопок&lt;br&gt;увеличения&lt;br&gt;или&lt;br&gt;уменьшения&lt;br&gt;размера" style="ellipse;whiteSpace=wrap;html=1;aspect=fixed;" vertex="1" parent="1">
          <mxGeometry x="10" y="200" width="110" height="110" as="geometry" />
        </mxCell>
        <mxCell id="n9FYxXZpF2rJdnw8TL6y-36" value="" style="endArrow=none;html=1;rounded=0;strokeWidth=3;" edge="1" parent="1">
          <mxGeometry width="50" height="50" relative="1" as="geometry">
            <mxPoint x="140" y="400" as="sourcePoint" />
            <mxPoint x="210" y="400" as="targetPoint" />
          </mxGeometry>
        </mxCell>
        <mxCell id="n9FYxXZpF2rJdnw8TL6y-37" value="" style="endArrow=classic;html=1;rounded=0;" edge="1" parent="1">
          <mxGeometry width="50" height="50" relative="1" as="geometry">
            <mxPoint x="250" y="310" as="sourcePoint" />
            <mxPoint x="180" y="400" as="targetPoint" />
          </mxGeometry>
        </mxCell>
        <mxCell id="n9FYxXZpF2rJdnw8TL6y-38" value="изменение размера&lt;br&gt;SVG изображения&lt;br&gt;с сохранением пропорций" style="ellipse;whiteSpace=wrap;html=1;aspect=fixed;" vertex="1" parent="1">
          <mxGeometry x="120" y="480" width="110" height="110" as="geometry" />
        </mxCell>
        <mxCell id="n9FYxXZpF2rJdnw8TL6y-39" value="" style="endArrow=classic;html=1;rounded=0;entryX=0.5;entryY=0;entryDx=0;entryDy=0;" edge="1" parent="1" target="n9FYxXZpF2rJdnw8TL6y-38">
          <mxGeometry width="50" height="50" relative="1" as="geometry">
            <mxPoint x="170" y="400" as="sourcePoint" />
            <mxPoint x="220" y="350" as="targetPoint" />
          </mxGeometry>
        </mxCell>
        <mxCell id="n9FYxXZpF2rJdnw8TL6y-40" value="" style="endArrow=none;html=1;rounded=0;strokeWidth=3;" edge="1" parent="1">
          <mxGeometry width="50" height="50" relative="1" as="geometry">
            <mxPoint x="340" y="400" as="sourcePoint" />
            <mxPoint x="410" y="400" as="targetPoint" />
          </mxGeometry>
        </mxCell>
        <mxCell id="n9FYxXZpF2rJdnw8TL6y-41" value="" style="endArrow=classic;html=1;rounded=0;" edge="1" parent="1">
          <mxGeometry width="50" height="50" relative="1" as="geometry">
            <mxPoint x="290" y="300" as="sourcePoint" />
            <mxPoint x="370" y="400" as="targetPoint" />
          </mxGeometry>
        </mxCell>
        <mxCell id="n9FYxXZpF2rJdnw8TL6y-42" value="" style="endArrow=classic;html=1;rounded=0;" edge="1" parent="1">
          <mxGeometry width="50" height="50" relative="1" as="geometry">
            <mxPoint x="470" y="310" as="sourcePoint" />
            <mxPoint x="380" y="400" as="targetPoint" />
          </mxGeometry>
        </mxCell>
        <mxCell id="n9FYxXZpF2rJdnw8TL6y-44" value="" style="endArrow=classic;html=1;rounded=0;entryX=0.918;entryY=0.236;entryDx=0;entryDy=0;entryPerimeter=0;" edge="1" parent="1" target="n9FYxXZpF2rJdnw8TL6y-38">
          <mxGeometry width="50" height="50" relative="1" as="geometry">
            <mxPoint x="370" y="400" as="sourcePoint" />
            <mxPoint x="395" y="480" as="targetPoint" />
          </mxGeometry>
        </mxCell>
        <mxCell id="n9FYxXZpF2rJdnw8TL6y-45" value="" style="curved=1;endArrow=classic;html=1;rounded=0;" edge="1" parent="1" target="n9FYxXZpF2rJdnw8TL6y-2">
          <mxGeometry width="50" height="50" relative="1" as="geometry">
            <mxPoint x="120" y="540" as="sourcePoint" />
            <mxPoint x="170" y="490" as="targetPoint" />
            <Array as="points">
              <mxPoint x="-10" y="520" />
              <mxPoint x="-50" y="100" />
            </Array>
          </mxGeometry>
        </mxCell>
      </root>
    </mxGraphModel>
  </diagram>
</mxfile>
